{"asset":{"generator":"Khronos glTF Spline I/O v0.0.1","version":"2.0"},"scenes":[{"nodes":[0]}],"nodes":[{"name":"Untitled","children":[1,2]},{"name":"DNA","matrix":[-0.9998476951563913,-0.004517015168838689,0.016857730108665814,0,1.2273168592535905e-16,0.9659258262890681,0.25881904510252,0,-0.017452406437283553,0.25877962570833274,-0.9657787111071575,0,-104.99999999999274,16.9997468566894,0,1],"children":[3,4,5,6,7,8,9,10,11,12,13,14,15,16,17]},{"name":"Default Camera","camera":0,"translation":[2344.719235584786,189.45002620979574,402.15589825779676],"rotation":[-0.0005432051041448784,0.6480886252963316,0.00046226551725673875,0.7615645901696833],"children":[18]},{"name":"Cylinder 10","matrix":[0.18614226410757384,0.0904441052473721,0.9115047737240095,0,-0.9055627825948345,0.10334371302031922,0.17467453992172036,0,-0.08389505753259745,-0.9180720210020452,0.10822830696287658,0,0.43908177825178996,81.0794851423483,-0.44991289333145446,1],"mesh":0},{"name":"Cylinder 9","matrix":[0.09275328009387619,8.453291908908775e-7,0.9956884208578554,0,-0.995688365451802,0.0000010423902391402295,0.09275310463105803,0,-7.899230827684571e-7,-0.999999229756729,0.0000010928748444354818,0,1.6226754038611944,289.02269299496527,-1.976785976106127,1],"mesh":1},{"name":"Cylinder 8","matrix":[0.09275233438780014,-7.049916206369708e-15,0.9956892107809561,0,-0.9956892107809703,2.2204460492503333e-16,0.09275233438780119,0,-7.21644966006342e-16,-0.9999999999999862,-6.8833827526758775e-15,0,1.6226753446431559,483.72893165490217,-1.9767859069422289,1],"mesh":2},{"name":"Cylinder 7","matrix":[0.9978718200973608,-3.2612801348363855e-16,-0.06520606302770669,0,0.065206063027707,6.661338147750947e-16,0.9978718200973656,0,-2.706168622523744e-16,-0.9999999999999725,6.661338147750754e-16,0,1.6226753446431843,578.4420629407714,-1.976785906942307,1],"mesh":3},{"name":"Cylinder 2","matrix":[0.9809097621926947,-1.1102230246251543e-16,0.19446346298229678,0,-0.19446346298229755,2.2204460492503175e-16,0.9809097621926988,0,-1.6653345369376806e-16,-0.9999999999999675,1.1102230246251204e-16,0,1.6226753446431559,402.10343372206165,-1.9767859069422542,1],"mesh":4},{"name":"Cylinder 5","matrix":[0.9953594254416859,1.3877787807814452e-17,0.09622688909237534,0,-0.09622688909237542,4.440892098500628e-16,0.9953594254416867,0,-3.4694469519535735e-17,-0.9999999999999882,4.440892098500574e-16,0,-0.8671786124718608,-576.7128399358066,-0.7271964881928348,1],"mesh":5},{"name":"Cylinder 4","matrix":[0.9989538717221307,1.7347234759768068e-17,0.04572922666484464,0,-0.04572922666484467,1.110223024625157e-16,0.9989538717221311,0,1.0408340855860716e-17,-0.9999999999999878,1.110223024625143e-16,0,1.9879591059220587,-389.09383498545094,-0.45117456731795014,1],"mesh":6},{"name":"Cylinder 13","matrix":[0.27965890460547377,-1.0136336214828217e-13,0.9600994204117478,0,-0.960099420411773,-1.1235457009207475e-13,0.279658904605482,0,7.860379014346693e-14,-1.0000000000000753,-1.2945200467130287e-13,0,1.9879591059281125,-499.95283166591537,-0.4511745673278693,1],"mesh":7},{"name":"Cylinder 12","matrix":[0.2796589046055267,-4.135580766728797e-14,0.9600994204116995,0,-0.9600994204117113,-4.618527782440807e-14,0.27965890460553117,0,3.19189119579741e-14,-1.0000000000000275,-5.3290705182008934e-14,0,1.9879591059221156,-307.8940025216971,-0.4511745673180354,1],"mesh":8},{"name":"Cylinder 11","matrix":[0.27965890460556264,-4.44089209850063e-16,0.9600994204116671,0,-0.9600994204116692,-1.11022302462516e-15,0.2796589046055637,0,7.216449660063477e-16,-0.9999999999999947,-8.881784197001203e-16,0,1.9879591059220587,-122.1017229460573,-0.4511745673179999,1],"mesh":9},{"name":"Cylinder 3","matrix":[0.9989538717221307,1.7347234759768068e-17,0.04572922666484464,0,-0.04572922666484467,1.110223024625157e-16,0.9989538717221311,0,1.0408340855860716e-17,-0.9999999999999878,1.110223024625143e-16,0,1.9879591059220587,-192.6737253001843,-0.45117456731799277,1],"mesh":10},{"name":"Cylinder 6","matrix":[0.8857635863994274,-5.5511151231257784e-17,0.4641366921595647,0,-0.46413669215956543,-2.220446049250315e-16,0.8857635863994291,0,5.55111512312577e-17,-0.9999999999999979,-2.220446049250308e-16,0,1.9879591059220587,224.9433882003554,-0.4511745673180505,1],"mesh":11},{"name":"Cylinder","matrix":[0.9957441764465441,2.7755575615628914e-17,0.09216037691325703,0,-0.09216037691325704,2.2204460492503136e-16,0.9957441764465443,0,1.387778780781447e-17,-1.0000000000000007,2.220446049250315e-16,0,1.9879591059220587,5.592351274624427,-0.4511745673180221,1],"mesh":12},{"name":"Helix 2","matrix":[-1.3,0,-1.5920408388915593e-16,0,0,1.03,0,0,1.5920408388915593e-16,0,-1.3,0,1.4210854715202004e-14,0.00515502929692957,0,1],"mesh":13},{"name":"Helix","matrix":[1.3,0,0,0,0,1.03,0,0,0,0,1.3,0,1.4210854715202004e-14,0.00515502929692957,0,1],"mesh":14},{"name":"Default Directional Light","translation":[850000,1300000,1000000],"rotation":[-0.45895513091666534,0.1367267597249462,-0.25064115022945466,0.8413352451859125],"extensions":{"KHR_lights_punctual":{"light":0}}}],"cameras":[{"type":"perspective","perspective":{"aspectRatio":1.9271882261812547,"yfov":0.7853981633974483,"znear":50,"zfar":50000}}],"meshes":[{"primitives":[{"attributes":{"POSITION":1,"NORMAL":2,"TEXCOORD_0":3},"indices":0}]},{"primitives":[{"attributes":{"POSITION":5,"NORMAL":6,"TEXCOORD_0":7},"indices":4}]},{"primitives":[{"attributes":{"POSITION":9,"NORMAL":10,"TEXCOORD_0":11},"indices":8}]},{"primitives":[{"attributes":{"POSITION":13,"NORMAL":14,"TEXCOORD_0":15},"indices":12}]},{"primitives":[{"attributes":{"POSITION":17,"NORMAL":18,"TEXCOORD_0":19},"indices":16}]},{"primitives":[{"attributes":{"POSITION":21,"NORMAL":22,"TEXCOORD_0":23},"indices":20}]},{"primitives":[{"attributes":{"POSITION":25,"NORMAL":26,"TEXCOORD_0":27},"indices":24}]},{"primitives":[{"attributes":{"POSITION":29,"NORMAL":30,"TEXCOORD_0":31},"indices":28}]},{"primitives":[{"attributes":{"POSITION":33,"NORMAL":34,"TEXCOORD_0":35},"indices":32}]},{"primitives":[{"attributes":{"POSITION":37,"NORMAL":38,"TEXCOORD_0":39},"indices":36}]},{"primitives":[{"attributes":{"POSITION":41,"NORMAL":42,"TEXCOORD_0":43},"indices":40}]},{"primitives":[{"attributes":{"POSITION":45,"NORMAL":46,"TEXCOORD_0":47},"indices":44}]},{"primitives":[{"attributes":{"POSITION":49,"NORMAL":50,"TEXCOORD_0":51},"indices":48}]},{"primitives":[{"attributes":{"POSITION":53,"NORMAL":54,"TEXCOORD_0":55},"indices":52}]},{"primitives":[{"attributes":{"POSITION":57,"NORMAL":58,"TEXCOORD_0":59},"indices":56}]}],"buffers":[{"uri":"data:application/octet-stream;base64,","byteLength":13952},{"uri":"data:application/octet-stream;base64,","byteLength":13952},{"uri":"data:application/octet-stream;base64,","byteLength":13952},{"uri":"data:application/octet-stream;base64,","byteLength":13952},{"uri":"data:application/octet-stream;base64,","byteLength":13952},{"uri":"data:application/octet-stream;base64,","byteLength":13952},{"uri":"data:application/octet-stream;base64,","byteLength":13952},{"uri":"data:application/octet-stream;base64,","byteLength":13952},{"uri":"data:application/octet-stream;base64,","byteLength":13952},{"uri":"data:application/octet-stream;base64,","byteLength":13952},{"uri":"data:application/octet-stream;base64,","byteLength":13952},{"uri":"data:application/octet-stream;base64,","byteLength":13952},{"uri":"data:application/octet-stream;base64,","byteLength":13952},{"uri":"data:application/octet-stream;base64,","byteLength":168280},{"uri":"data:application/octet-stream;base64,","byteLength":168280}],"bufferViews":[{"buffer":0,"byteOffset":0,"byteLength":1536,"target":34963},{"buffer":0,"byteOffset":1536,"byteLength":4656,"target":34962},{"buffer":0,"byteOffset":6192,"byteLength":4656,"target":34962},{"buffer":0,"byteOffset":10848,"byteLength":3104,"target":34962},{"buffer":1,"byteOffset":0,"byteLength":1536,"target":34963},{"buffer":1,"byteOffset":1536,"byteLength":4656,"target":34962},{"buffer":1,"byteOffset":6192,"byteLength":4656,"target":34962},{"buffer":1,"byteOffset":10848,"byteLength":3104,"target":34962},{"buffer":2,"byteOffset":0,"byteLength":1536,"target":34963},{"buffer":2,"byteOffset":1536,"byteLength":4656,"target":34962},{"buffer":2,"byteOffset":6192,"byteLength":4656,"target":34962},{"buffer":2,"byteOffset":10848,"byteLength":3104,"target":34962},{"buffer":3,"byteOffset":0,"byteLength":1536,"target":34963},{"buffer":3,"byteOffset":1536,"byteLength":4656,"target":34962},{"buffer":3,"byteOffset":6192,"byteLength":4656,"target":34962},{"buffer":3,"byteOffset":10848,"byteLength":3104,"target":34962},{"buffer":4,"byteOffset":0,"byteLength":1536,"target":34963},{"buffer":4,"byteOffset":1536,"byteLength":4656,"target":34962},{"buffer":4,"byteOffset":6192,"byteLength":4656,"target":34962},{"buffer":4,"byteOffset":10848,"byteLength":3104,"target":34962},{"buffer":5,"byteOffset":0,"byteLength":1536,"target":34963},{"buffer":5,"byteOffset":1536,"byteLength":4656,"target":34962},{"buffer":5,"byteOffset":6192,"byteLength":4656,"target":34962},{"buffer":5,"byteOffset":10848,"byteLength":3104,"target":34962},{"buffer":6,"byteOffset":0,"byteLength":1536,"target":34963},{"buffer":6,"byteOffset":1536,"byteLength":4656,"target":34962},{"buffer":6,"byteOffset":6192,"byteLength":4656,"target":34962},{"buffer":6,"byteOffset":10848,"byteLength":3104,"target":34962},{"buffer":7,"byteOffset":0,"byteLength":1536,"target":34963},{"buffer":7,"byteOffset":1536,"byteLength":4656,"target":34962},{"buffer":7,"byteOffset":6192,"byteLength":4656,"target":34962},{"buffer":7,"byteOffset":10848,"byteLength":3104,"target":34962},{"buffer":8,"byteOffset":0,"byteLength":1536,"target":34963},{"buffer":8,"byteOffset":1536,"byteLength":4656,"target":34962},{"buffer":8,"byteOffset":6192,"byteLength":4656,"target":34962},{"buffer":8,"byteOffset":10848,"byteLength":3104,"target":34962},{"buffer":9,"byteOffset":0,"byteLength":1536,"target":34963},{"buffer":9,"byteOffset":1536,"byteLength":4656,"target":34962},{"buffer":9,"byteOffset":6192,"byteLength":4656,"target":34962},{"buffer":9,"byteOffset":10848,"byteLength":3104,"target":34962},{"buffer":10,"byteOffset":0,"byteLength":1536,"target":34963},{"buffer":10,"byteOffset":1536,"byteLength":4656,"target":34962},{"buffer":10,"byteOffset":6192,"byteLength":4656,"target":34962},{"buffer":10,"byteOffset":10848,"byteLength":3104,"target":34962},{"buffer":11,"byteOffset":0,"byteLength":1536,"target":34963},{"buffer":11,"byteOffset":1536,"byteLength":4656,"target":34962},{"buffer":11,"byteOffset":6192,"byteLength":4656,"target":34962},{"buffer":11,"byteOffset":10848,"byteLength":3104,"target":34962},{"buffer":12,"byteOffset":0,"byteLength":1536,"target":34963},{"buffer":12,"byteOffset":1536,"byteLength":4656,"target":34962},{"buffer":12,"byteOffset":6192,"byteLength":4656,"target":34962},{"buffer":12,"byteOffset":10848,"byteLength":3104,"target":34962},{"buffer":13,"byteOffset":0,"byteLength":44280,"target":34963},{"buffer":13,"byteOffset":44280,"byteLength":46500,"target":34962},{"buffer":13,"byteOffset":90780,"byteLength":46500,"target":34962},{"buffer":13,"byteOffset":137280,"byteLength":31000,"target":34962},{"buffer":14,"byteOffset":0,"byteLength":44280,"target":34963},{"buffer":14,"byteOffset":44280,"byteLength":46500,"target":34962},{"buffer":14,"byteOffset":90780,"byteLength":46500,"target":34962},{"buffer":14,"byteOffset":137280,"byteLength":31000,"target":34962}],"accessors":[{"bufferView":0,"byteOffset":0,"componentType":5123,"count":768,"type":"SCALAR","min":[0],"max":[387]},{"bufferView":1,"byteOffset":0,"componentType":5126,"count":388,"type":"VEC3","min":[-5,-55,-5],"max":[5,55,5]},{"bufferView":2,"byteOffset":0,"componentType":5126,"count":388,"type":"VEC3","min":[-1,-1,-1],"max":[1,1,1]},{"bufferView":3,"byteOffset":0,"componentType":5126,"count":388,"type":"VEC2","min":[0,0],"max":[1,1]},{"bufferView":4,"byteOffset":0,"componentType":5123,"count":768,"type":"SCALAR","min":[0],"max":[387]},{"bufferView":5,"byteOffset":0,"componentType":5126,"count":388,"type":"VEC3","min":[-5,-55,-5],"max":[5,55,5]},{"bufferView":6,"byteOffset":0,"componentType":5126,"count":388,"type":"VEC3","min":[-1,-1,-1],"max":[1,1,1]},{"bufferView":7,"byteOffset":0,"componentType":5126,"count":388,"type":"VEC2","min":[0,0],"max":[1,1]},{"bufferView":8,"byteOffset":0,"componentType":5123,"count":768,"type":"SCALAR","min":[0],"max":[387]},{"bufferView":9,"byteOffset":0,"componentType":5126,"count":388,"type":"VEC3","min":[-5,-55,-5],"max":[5,55,5]},{"bufferView":10,"byteOffset":0,"componentType":5126,"count":388,"type":"VEC3","min":[-1,-1,-1],"max":[1,1,1]},{"bufferView":11,"byteOffset":0,"componentType":5126,"count":388,"type":"VEC2","min":[0,0],"max":[1,1]},{"bufferView":12,"byteOffset":0,"componentType":5123,"count":768,"type":"SCALAR","min":[0],"max":[387]},{"bufferView":13,"byteOffset":0,"componentType":5126,"count":388,"type":"VEC3","min":[-5,-55,-5],"max":[5,55,5]},{"bufferView":14,"byteOffset":0,"componentType":5126,"count":388,"type":"VEC3","min":[-1,-1,-1],"max":[1,1,1]},{"bufferView":15,"byteOffset":0,"componentType":5126,"count":388,"type":"VEC2","min":[0,0],"max":[1,1]},{"bufferView":16,"byteOffset":0,"componentType":5123,"count":768,"type":"SCALAR","min":[0],"max":[387]},{"bufferView":17,"byteOffset":0,"componentType":5126,"count":388,"type":"VEC3","min":[-5,-55,-5],"max":[5,55,5]},{"bufferView":18,"byteOffset":0,"componentType":5126,"count":388,"type":"VEC3","min":[-1,-1,-1],"max":[1,1,1]},{"bufferView":19,"byteOffset":0,"componentType":5126,"count":388,"type":"VEC2","min":[0,0],"max":[1,1]},{"bufferView":20,"byteOffset":0,"componentType":5123,"count":768,"type":"SCALAR","min":[0],"max":[387]},{"bufferView":21,"byteOffset":0,"componentType":5126,"count":388,"type":"VEC3","min":[-5,-55,-5],"max":[5,55,5]},{"bufferView":22,"byteOffset":0,"componentType":5126,"count":388,"type":"VEC3","min":[-1,-1,-1],"max":[1,1,1]},{"bufferView":23,"byteOffset":0,"componentType":5126,"count":388,"type":"VEC2","min":[0,0],"max":[1,1]},{"bufferView":24,"byteOffset":0,"componentType":5123,"count":768,"type":"SCALAR","min":[0],"max":[387]},{"bufferView":25,"byteOffset":0,"componentType":5126,"count":388,"type":"VEC3","min":[-5,-55,-5],"max":[5,55,5]},{"bufferView":26,"byteOffset":0,"componentType":5126,"count":388,"type":"VEC3","min":[-1,-1,-1],"max":[1,1,1]},{"bufferView":27,"byteOffset":0,"componentType":5126,"count":388,"type":"VEC2","min":[0,0],"max":[1,1]},{"bufferView":28,"byteOffset":0,"componentType":5123,"count":768,"type":"SCALAR","min":[0],"max":[387]},{"bufferView":29,"byteOffset":0,"componentType":5126,"count":388,"type":"VEC3","min":[-5,-55,-5],"max":[5,55,5]},{"bufferView":30,"byteOffset":0,"componentType":5126,"count":388,"type":"VEC3","min":[-1,-1,-1],"max":[1,1,1]},{"bufferView":31,"byteOffset":0,"componentType":5126,"count":388,"type":"VEC2","min":[0,0],"max":[1,1]},{"bufferView":32,"byteOffset":0,"componentType":5123,"count":768,"type":"SCALAR","min":[0],"max":[387]},{"bufferView":33,"byteOffset":0,"componentType":5126,"count":388,"type":"VEC3","min":[-5,-55,-5],"max":[5,55,5]},{"bufferView":34,"byteOffset":0,"componentType":5126,"count":388,"type":"VEC3","min":[-1,-1,-1],"max":[1,1,1]},{"bufferView":35,"byteOffset":0,"componentType":5126,"count":388,"type":"VEC2","min":[0,0],"max":[1,1]},{"bufferView":36,"byteOffset":0,"componentType":5123,"count":768,"type":"SCALAR","min":[0],"max":[387]},{"bufferView":37,"byteOffset":0,"componentType":5126,"count":388,"type":"VEC3","min":[-5,-55,-5],"max":[5,55,5]},{"bufferView":38,"byteOffset":0,"componentType":5126,"count":388,"type":"VEC3","min":[-1,-1,-1],"max":[1,1,1]},{"bufferView":39,"byteOffset":0,"componentType":5126,"count":388,"type":"VEC2","min":[0,0],"max":[1,1]},{"bufferView":40,"byteOffset":0,"componentType":5123,"count":768,"type":"SCALAR","min":[0],"max":[387]},{"bufferView":41,"byteOffset":0,"componentType":5126,"count":388,"type":"VEC3","min":[-5,-55,-5],"max":[5,55,5]},{"bufferView":42,"byteOffset":0,"componentType":5126,"count":388,"type":"VEC3","min":[-1,-1,-1],"max":[1,1,1]},{"bufferView":43,"byteOffset":0,"componentType":5126,"count":388,"type":"VEC2","min":[0,0],"max":[1,1]},{"bufferView":44,"byteOffset":0,"componentType":5123,"count":768,"type":"SCALAR","min":[0],"max":[387]},{"bufferView":45,"byteOffset":0,"componentType":5126,"count":388,"type":"VEC3","min":[-5,-55,-5],"max":[5,55,5]},{"bufferView":46,"byteOffset":0,"componentType":5126,"count":388,"type":"VEC3","min":[-1,-1,-1],"max":[1,1,1]},{"bufferView":47,"byteOffset":0,"componentType":5126,"count":388,"type":"VEC2","min":[0,0],"max":[1,1]},{"bufferView":48,"byteOffset":0,"componentType":5123,"count":768,"type":"SCALAR","min":[0],"max":[387]},{"bufferView":49,"byteOffset":0,"componentType":5126,"count":388,"type":"VEC3","min":[-5,-55,-5],"max":[5,55,5]},{"bufferView":50,"byteOffset":0,"componentType":5126,"count":388,"type":"VEC3","min":[-1,-1,-1],"max":[1,1,1]},{"bufferView":51,"byteOffset":0,"componentType":5126,"count":388,"type":"VEC2","min":[0,0],"max":[1,1]},{"bufferView":52,"byteOffset":0,"componentType":5123,"count":22140,"type":"SCALAR","min":[1],"max":[3873]},{"bufferView":53,"byteOffset":0,"componentType":5126,"count":3875,"type":"VEC3","min":[-50,-570.8373413085938,-50],"max":[50,570.8273315429688,50]},{"bufferView":54,"byteOffset":0,"componentType":5126,"count":3875,"type":"VEC3","min":[-1,-0.8097736239433289,-1],"max":[1,0.8100513219833374,1]},{"bufferView":55,"byteOffset":0,"componentType":5126,"count":3875,"type":"VEC2","min":[0,0],"max":[1,1]},{"bufferView":56,"byteOffset":0,"componentType":5123,"count":22140,"type":"SCALAR","min":[1],"max":[3873]},{"bufferView":57,"byteOffset":0,"componentType":5126,"count":3875,"type":"VEC3","min":[-50,-570.8373413085938,-50],"max":[50,570.8273315429688,50]},{"bufferView":58,"byteOffset":0,"componentType":5126,"count":3875,"type":"VEC3","min":[-1,-0.8097736239433289,-1],"max":[1,0.8100513219833374,1]},{"bufferView":59,"byteOffset":0,"componentType":5126,"count":3875,"type":"VEC2","min":[0,0],"max":[1,1]}],"extensions":{"KHR_lights_punctual":{"lights":[{"type":"directional","name":"Default Directional Light","color":[1,1,1],"intensity":0.75}]}},"extensionsUsed":["KHR_lights_punctual"]}