<svg id="Layer_1" data-name="Layer 1" xmlns="http://www.w3.org/2000/svg" viewBox="0 0 486.34 204.1"><defs><style>.cls-1{fill:none;stroke:aqua;stroke-linecap:round;stroke-miterlimit:10;stroke-width:4px;}</style></defs><path class="cls-1" d="M35.5,158.91H150.1a16.38,16.38,0,0,0,12.08-5.32l20-21.76a5.87,5.87,0,0,1,9.58,1.34l22.09,44.2a5.88,5.88,0,0,0,11-1.52L250.26,43.4a2.81,2.81,0,0,1,5.54.13l28.06,193.86a4.47,4.47,0,0,0,8.76.47l17.53-68.66a13.67,13.67,0,0,1,13.25-10.29h23.34a13.59,13.59,0,0,0,12.45-8.14l20.63-47.18a5,5,0,0,1,9.24,0l20.46,45.81a16.1,16.1,0,0,0,14.71,9.55h93.61" transform="translate(-33.5 -39.12)"/></svg>