<svg id="Layer_2" data-name="Layer 2" xmlns="http://www.w3.org/2000/svg" viewBox="0 0 1080 1080"><defs><style>.cls-1{fill:none;stroke:#90e9f9;stroke-miterlimit:10;stroke-width:20px;}</style></defs><polyline class="cls-1" points="684.5 747.5 648.5 694.5 637.05 619.07"/><polyline class="cls-1" points="510.5 612.5 561.5 598 592.5 480.5 655.25 434"/><path class="cls-1" d="M610.5,344.5l164,136,8,350-52,108L412,848,280.5,571.5v-88l124-130.12L540,261,796.5,150.5V222l-171,65.55-15,57,63,126-3,105-109,142"/><polyline class="cls-1" points="405 353 338.5 143.5 279.61 150.5 324.67 318.24 310.5 380.5 267.5 457.5 280.5 571.5"/><polyline class="cls-1" points="506 284 461.06 288.87 500.5 212.5 453 194.63 419.42 288.87 394 317"/><circle class="cls-1" cx="491" cy="621" r="21.5"/><circle class="cls-1" cx="551" cy="736" r="21.5"/><circle class="cls-1" cx="696" cy="766" r="21.5"/></svg>