<svg id="Layer_2" data-name="Layer 2" xmlns="http://www.w3.org/2000/svg" viewBox="0 0 1080 1080"><defs><style>.cls-1{fill:none;stroke:#90e9f9;stroke-miterlimit:10;stroke-width:3px;}</style></defs><path class="cls-1" d="M1001.06,722.46,1170,723l.06-20-168.57-.54,17.31-404.75,70.44-52.08,4.43,2.81,7.28-11.47,8-5.93L1097.05,215l-8.7,6.43-56-35.54,54-59.83,50.06,33.31,11.08-16.66L1100,111l26.47-29.31-14.84-13.4-28.47,31.51L1020.26,58l46.63-59.85-15.78-12.3-47.54,61L935.49,1.6,950-18,934-29.95,918.82-9.5,899.54-22.33,888.46-5.67,906.91,6.6,856.75,74.36l-47.7-30.29,33.55-52,9.24-3.84-2.65-6.37,2.21-3.44-5-3.21-2.27-5.44-3.75,1.56-5.81-3.75L829.17-24,714.85,23.49l-50.52-76L647.67-41.47l18.65,28.08L601,13.75,528.61-109.08,511.39-98.92l19.79,33.57L424.81-25,396-83.43,378-74.57,406-17.9,320.17,14.65,281.08-70.18l-18.16,8.36,38.5,83.58L225.85,50.41,172-61.34l-18,8.68L207.08,57.53,114.46,92.65l3.7,9.76-62-139.47L37.86-28.94l92.76,208.6-191.4,78.08,7.56,18.52L50.09,234.11,62.18,260l-95.92,38.71,7.48,18.54,96.91-39.1,6.62,14.16L-60,351.83l8,18.34L85.73,310.46,112,366.64-57.16,443.9l8.32,18.2,62.6-28.61,27.9,67.38-79.77,36,8.22,18.22,79.2-35.75,19,45.88L2.9,594.89l-11.36-5.8-7.26,14.23-56.41,25.57,8.26,18.22,66.26-30L74.8,654a35.68,35.68,0,0,0-.8,7.5,35.3,35.3,0,0,0,8.18,22.64l-12.4,21.28L-37,644.32-47,661.68l106.69,61-74,127-.81-.46-9.82,17.42.57.32L-79.64,962-62.36,972l55.44-95.19L49.5,908.61-28.64,1043-11.36,1053l78.28-134.6,22.61,12.73L-8.68,1103,8.68,1113,107,941l79.48,44.75-69.13,121.32,17.38,9.9,69.17-121.4L335,1069.38l-45.65,80.7,17.4,9.84,45.68-80.73,81.3,45.78-27.41,49.16,17.46,9.74L530.66,992.1l114.9,65.73-47.31,85.32,17.5,9.7L722.46,960.4,779.32,1046a50,50,0,1,0,92.08,33.78l89-24.9,24.46,30.89L955,1114.84l14,14.32,110.35-107.57,13.49,21.81L1018,1099,1030,1115l73.41-54.55,22.12,35.78,17-10.52-23-37.24L1139,1034,1127,1018l-18.11,13.46-73.1-118.23,0-1.2-.71,0L1002,858.45ZM822,1022a49.69,49.69,0,0,0-28.6,9l-59.67-89.81L865,935.65l-36.9,86.73A50.59,50.59,0,0,0,822,1022ZM94,661.5A15.5,15.5,0,1,1,109.5,677,15.51,15.51,0,0,1,94,661.5ZM136.05,638l14.79-23.76,52.61,29.69-26.31,45.23L143.8,670.66A35.45,35.45,0,0,0,136.05,638Zm32.29-422.69,60.38-25.1,43.69,103.15-57.65,26.34ZM348,140.61l22.15,92.54-87,34.11-35.9-84.75ZM565.47,50.2l-106.18,148-70.37,27.58-22.24-92.95ZM897.18,800.76l.62,45.12-104.16,1,27.58-43ZM602.57,743.83l-.24-.36-.19.12-45.35-25.7,28.15-49.76,78.89,44.07-28.11,50.41ZM233.14,720.15l25.71-45L338,719.82,312.66,764.2Zm69.62,61.43-24.54,43.08-79-45.18,24-42ZM285,477.71l-24-53.93L317,398.54l12.29,29-32.85,56.49Zm6.13-192.13L376.83,252l70.1,184L428,464.79l-79.25-42.43L298.41,303.44l.75-.34Zm170.75-66.92L487.37,276,419,306.41l-23.5-61.7ZM622.42,205.4,664,232,582.28,358.71l-43.47-26.08Zm250.67,79.12L805.52,382,739.29,339l68.41-96.48ZM823.25,417.39l-76.36,56.45L679.69,423l48-67.74Zm41.29-5.65,22.05,30.34-31.76,24.39-33.51-22.78Zm125.88,80.67L962.83,513l-19.45-26.76L972.6,464.3l17.91,26.09Zm-43.63,32.51-33.47,24.92-18.57-27.15,32.63-24.48Zm-63.35-18.75-16.35-23.9,31.26-24L915.62,482Zm-423-1.34-30.63,53.75-79.1-44.18,29.89-52.31Zm67.37-155.48,43.61,26.17L518.22,458l-45.67-24.55ZM683.24,450.79l-29.87,40.46L608,457l30.22-40.28ZM580,461l8,6,53.45,40.31-.53.72L657,519.94l42.16-57.08,30.92,23.38L660,538.09a44.46,44.46,0,0,0-71.75,12.48L509.5,508.41l82-127,30.8,23.28Zm224.28-4.71,33.84,23-48.79,37.47L760.7,488.5ZM604,569.5A24.5,24.5,0,1,1,628.5,594,24.53,24.53,0,0,1,604,569.5ZM461.52,450.24l45.83,24.63-15.54,24.07-46.08-24.67Zm16.56,64,45.85,24.54-31.61,54.67-45-25.16Zm63.49,34L584,571A44.36,44.36,0,0,0,599,602.74L577.33,641l-67.55-37.73Zm74.93,64.07a44.31,44.31,0,0,0,37.58-6.46l52.57,29.53-33.08,59.32-78.78-44ZM724.09,645.2,757.63,664l-32,59.77L691,704.48Zm-56.41-54.62a44.37,44.37,0,0,0,2.92-35.46l73.83-54.58,65.9,65.07-43.26,80.8Zm156.17-39.72L803.69,531l47.51-36.48,16.23,23.71ZM663.73,411l-61.41-46.44,41.25-63.93,67.36,43.78Zm-137.18-96.1L513.76,286.1l44.8-19.94Zm-13.06,19.86-53,80.68-34.4-90.29,69.41-30.89ZM343.79,442.37,363,452.64l-29.71,52-19.39-10.82ZM323.33,522l-72,126-20.43-11.53,72.9-125.34Zm17.47,9.75L419.92,576,347.85,702.45l-79.08-44.64Zm14.56,197.9,130.21,73.49-24.48,43.28L330.16,773.9Zm9.91-17.38,72.11-126.57L482.3,610.8l-36,62.19,3,1.73-2.26,4,82.47,46.74-34.12,60.31Zm106.18-42.75,28.32-49,67.71,37.82L539.39,708ZM681.29,722l34.91,19.5-27.43,51.23-35.65-20.2Zm52.37,29.25,71.81,40.11-31.73,49.52-67.56-38.29Zm9.44-17.63,32-59.73,77.69,43.64-36.49,57Zm116.39-35.25-75-42.12,45.48-85,48.73-36.55,18.54,27.1L897,562l.93,1.26Zm56.56-125.57,42.49-31.66,28.14,38.73-2.25,52.7-82-11.84Zm58.53-43.6,14.74-11-1.26,29.52Zm14-76.86,3.63-2.73-.32,7.56Zm4.74-28.56-16.07,12.06-17.14-25L995.06,384ZM961.27,447.8,931.62,470l-17.4-23.95,30-23.07Zm-58.81-17.9-21.84-30,31.67-23.42,20.64,30.07Zm-62-25.2L822.3,392.92l67.62-97.58,52.64,33.84Zm25.49-148.57,79.37-101.88L1001.63,190l-86,95.27,10.59,9.57ZM849,245.27l-63.63-40.91,76.36-103.14,66.56,42.26Zm-58.16-13.61-68.35,96.4-68.1-44.27,63.77-98.86Zm-116-16.51L633.4,188.69l33-50.17,77.56-30.4Zm-96,20.07-73.25,32.6-25.1-56.47,153.59-60.19ZM280.21,311.75l29,68.36L252.93,405.5l-30-67.56Zm-45.51,102-65,29.34-31.11-66.62,66.08-30.2ZM242.82,432l20,45.06L199.09,506l-20.91-44.78Zm-61.95,82.22-34.08,15.44-20.37-45.12L160,469.42Zm-6.94,25.1-29.93,48-33.89-19.12Zm32.83-14.88,66.77-30.26,12.82,7.16L213.5,626.61l-52.07-29.39Zm14.11,129.29,20.56,11.6-25.78,45.12-21-11.63Zm-15.15,74.09-23.84,41.72-21.29-12.18,24-41.25ZM172,786.91,137.05,848l-22-12.26,35.53-61.08Zm17.36,9.94,79,45.18-34.17,60-79.61-44.29ZM285.67,852l130.16,74.46-33,58.31-131.22-73Zm9.91-17.37,24.67-43.32,131,72.57L425.68,909Zm173.15,38.94L549.06,918,523,964.7l-80-45.76Zm9.85-17.41L503,813l79.6,44.93L558.8,900.56Zm113.75-15.68-79.49-44.86,34.1-60.28,41.62,23.58,26.77,40.3Zm51-50.5,36,20.37-14.54,27.16-26-39.2Zm53.35,30.24,66.21,37.51-41,64-1.14,0-43.44-65.37Zm176.92,95.08-127.31,5.4L780.75,867l113.89-1.05ZM917.8,845.7,917.17,800l64.4-2.57.32,47.72Zm63.63-68.33-147,5.89,39.21-61.21,107.47.34Zm-102.21-75.3,17.65-62,86.7,12.51-2.13,49.8ZM996.17,357.94,948.81,394.3l-20.43-29.76,32.18-23.79,1,.66,1.75-2.72L998.09,313Zm74.94-123.8L959.77,316.46,931.05,298l87.71-97.1Zm-1.55-119.32L1015.23,175l-57.6-36.57,50.31-64.58Zm-146-97.13,67.66,45-50.58,64.92-67-42.53ZM844.82,90.47,768.53,193.53,729,168.13,798.21,60.88ZM810.08,5.58,757.31,87.39,726.13,40.47Zm-75,84.52L493.53,184.78l107-149.16,77.06-32Zm-193.61-138,40.9,69.37L470.7,67.93,433.7-7ZM414.91.12l37.28,75.5L365,111.88l-36.41-79ZM309.81,40l36.68,79.6-72.75,30.24L234.57,68.5Zm-94,35.65,39.45,81.88-95,39.5-38.17-85.84ZM68.63,226.55l70.12-28.61L164,254.74,95.63,284.37Zm35.46,75.95,68-29.49,24.44,55-66.42,30.34Zm47.4,148.8-33.31,15L88,399.56l32.39-14.8ZM32,425.17l37.87-17.3L100,474.56,59.9,492.64Zm35.58,86,40.64-18.35,20.39,45.15L86.54,557ZM25.7,606.51l61.84-28,45.87,25.89-14.3,23a35.43,35.43,0,0,0-34.73,9.11Zm73.1,88.84a35.47,35.47,0,0,0,34.58-7.6l33.71,18.67-23.86,41L87.14,715.36Zm34.38,69.38L97.53,826,41,794.57l36.08-61.93Zm-130,94.83,27.79-47.7,56.54,31.45-27.93,48ZM77,901.14,105,853l22.17,12.34L99.46,913.8Zm39.9,22.47,27.73-48.52,79.63,44.3-27.9,49Zm96.88,54.56,28-49.06,131.28,73L344.8,1052Zm148.47,83.61,28.24-49.92L471.59,1057l-28.17,50.52Zm119.1-22.27-81-45.06,32.87-58.1,80.11,45.82Zm59.07-64.87,26.16-46.92,115.63,64.06-26.93,48.56Zm151.49-.35-115.59-64,51.49-92.34L710,941.64ZM822,1102a30,30,0,1,1,30-30A30,30,0,0,1,822,1102Zm25.09-73.22L887,934.87l51.19-1,2.5,105.71-70.38,19.69A50.14,50.14,0,0,0,847.09,1028.78ZM960.6,1034,958.23,933.5l65.85-1.27,44.29,71.64Zm20.7,15,57.87-16.19-39.9,38.89ZM895.62,914.7l20.84-49,66.12-.6,29.28,47.35Z"/></svg>