<svg id="Layer_2" data-name="Layer 2" xmlns="http://www.w3.org/2000/svg" viewBox="0 0 500 500"><defs><style>.cls-1{fill:#90e9f9;}</style></defs><path class="cls-1" d="M251,27.5c121.78,0,220.5,98.72,220.5,220.5S372.78,468.5,251,468.5,30.5,369.78,30.5,248,129.22,27.5,251,27.5m0-20a240.56,240.56,0,0,0-93.62,462.09A240.56,240.56,0,0,0,344.62,26.41,238.94,238.94,0,0,0,251,7.5Z"/><path class="cls-1" d="M215.27,143.09c0-18,14.36-32,35.73-32s35.73,13.27,35.73,31c0,19.15-14.37,33.15-35.73,33.15S215.27,161.14,215.27,143.09Zm7,59.68h57.46V401H222.27Z"/></svg>