<svg id="Layer_2" data-name="Layer 2" xmlns="http://www.w3.org/2000/svg" viewBox="0 0 500 500"><defs><style>.cls-1{fill:#90e9f9;}</style></defs><path class="cls-1" d="M251,27.5c121.78,0,220.5,98.72,220.5,220.5S372.78,468.5,251,468.5,30.5,369.78,30.5,248,129.22,27.5,251,27.5m0-20a240.56,240.56,0,0,0-93.62,462.09A240.56,240.56,0,0,0,344.62,26.41,238.94,238.94,0,0,0,251,7.5Z"/><path class="cls-1" d="M251,86.5A114.5,114.5,0,0,0,136.5,201c0,63.24,114.5,208.5,114.5,208.5S365.5,264.24,365.5,201A114.5,114.5,0,0,0,251,86.5Zm.5,171.5A58.5,58.5,0,1,1,310,199.5,58.5,58.5,0,0,1,251.5,258Z"/></svg>