<svg id="Layer_2" data-name="Layer 2" xmlns="http://www.w3.org/2000/svg" viewBox="0 0 500 500"><defs><style>.cls-1{fill:#90e9f9;}</style></defs><path class="cls-1" d="M251,27.5c121.78,0,220.5,98.72,220.5,220.5S372.78,468.5,251,468.5,30.5,369.78,30.5,248,129.22,27.5,251,27.5m0-20a240.56,240.56,0,0,0-93.62,462.09A240.56,240.56,0,0,0,344.62,26.41,238.94,238.94,0,0,0,251,7.5Z"/><path class="cls-1" d="M391.67,381.7a198.43,198.43,0,0,1-281.34,0A141.34,141.34,0,0,1,228.5,255.26a71.53,71.53,0,1,1,45,0A141.34,141.34,0,0,1,391.67,381.7Z"/></svg>